# xmcd
#
# Track frame offsets:
#	150
#	26752
#	49072
#	70177
#	93537
#
# Disc length: 1489 seconds
#
# Revision: 1
# Processed by: cddbd v1.5.1PL0 Copyright (c) Steve Scherf et al.
# Submitted via: CDex 1.50Beta5
#
DISCID=3e05cf05
DTITLE=安藤裕子 - サリー
DYEAR=2003
DGENRE=
TTITLE0=サリー
TTITLE1=黒い車
TTITLE2=summer
TTITLE3=蒔かれた種について
TTITLE4=リズム
EXTD=
EXTT0=
EXTT1=
EXTT2=
EXTT3=
EXTT4=
PLAYORDER=
